<svg width="606" height="606" viewBox="0 0 606 606" fill="none" xmlns="http://www.w3.org/2000/svg">
<circle cx="303" cy="303" r="303" fill="#00AF91"/>
<path d="M202.2 300.6C210.467 302.467 217 306.6 221.8 313C226.733 319.267 229.2 326.467 229.2 334.6C229.2 346.6 225.067 356 216.8 362.8C208.533 369.6 196.933 373 182 373H112.2V232H179.8C194.2 232 205.467 235.2 213.6 241.6C221.867 248 226 257 226 268.6C226 276.867 223.8 283.8 219.4 289.4C215.133 294.867 209.4 298.6 202.2 300.6ZM151.4 288H171.2C181.067 288 186 283.933 186 275.8C186 267.4 181.067 263.2 171.2 263.2H151.4V288ZM174.2 341.4C184.067 341.4 189 337.267 189 329C189 324.733 187.667 321.467 185 319.2C182.467 316.933 178.8 315.8 174 315.8H151.4V341.4H174.2ZM265.38 374.6C258.446 374.6 252.846 372.733 248.58 369C244.446 365.133 242.38 360.267 242.38 354.4C242.38 348.533 244.446 343.667 248.58 339.8C252.846 335.933 258.446 334 265.38 334C272.18 334 277.646 335.933 281.78 339.8C286.046 343.667 288.18 348.533 288.18 354.4C288.18 360.133 286.046 364.933 281.78 368.8C277.646 372.667 272.18 374.6 265.38 374.6ZM345.736 232V373H306.536V232H345.736ZM423.859 232C438.659 232 451.593 235 462.659 241C473.859 246.867 482.459 255.133 488.459 265.8C494.459 276.467 497.459 288.667 497.459 302.4C497.459 316 494.393 328.133 488.259 338.8C482.259 349.467 473.659 357.867 462.459 364C451.393 370 438.526 373 423.859 373H368.059V232H423.859ZM420.859 338.4C432.326 338.4 441.326 335.267 447.859 329C454.393 322.733 457.659 313.867 457.659 302.4C457.659 290.8 454.393 281.867 447.859 275.6C441.326 269.2 432.326 266 420.859 266H407.259V338.4H420.859Z" fill="white"/>
</svg>
